# xmcd
#
# Track frame offsets:
#	150
#	17252
#	36535
#	51485
#	67410
#	81220
#	96335
#	124032
#	141190
#	156337
#	174567
#	194267
#	210985
#	233137
#	261092
#	281710
#	302817
#
# Disc length: 4378 seconds
#
# Revision: 0
# Processed by: cddbd v1.4PL0 Copyright (c) Steve Scherf et al.
# Submitted via: EasyCDDAExtractor 5.0.5.1
#
DISCID=fc111811
DTITLE=Mary Chapin Carpenter - Party Doll And Other Favorites
DYEAR=1999
DGENRE=Country
TTITLE0=Can't Take Love For Granted
TTITLE1=Wherever You Are
TTITLE2=Down At The Twist And Shout (Live - Super Bowl XXXI)
TTITLE3=I Feel Lucky
TTITLE4=Dreamland
TTITLE5=Passionate Kisses
TTITLE6=Quittin' Time (Live - Ryman Auditorium)
TTITLE7=This Shirt
TTITLE8=Grow Old With Me 
TTITLE9=He Thinks He'll Keep Her
TTITLE10=I Take My Chances (Live - Madison, WI)
TTITLE11=Shut Up And Kiss Me
TTITLE12=The Hard Way (Live - Wolf Trap)
TTITLE13=10,000 Miles
TTITLE14=Stones In The Road (Live - Her Majesty's Theatre, London)
TTITLE15=Almost Home
TTITLE16=Party Doll
EXTD=YEAR: 1996 ID3G: 2
EXTT0=
EXTT1=
EXTT2=
EXTT3=
EXTT4=
EXTT5=
EXTT6=
EXTT7=
EXTT8=
EXTT9=
EXTT10=
EXTT11=
EXTT12=
EXTT13=
EXTT14=
EXTT15=
EXTT16=
PLAYORDER=
